<svg width="27" height="27" fill="none" xmlns="http://www.w3.org/2000/svg"><path d="M15.232 22.787v-8.695h2.975l.446-3.39h-3.42V8.538c0-.98.276-1.65 1.712-1.65h1.828V3.856a25.273 25.273 0 00-2.665-.133c-2.638 0-4.444 1.58-4.444 4.48v2.5H8.681v3.389h2.983v8.695h3.568z" fill="#fff"/><mask id="a" style="mask-type:alpha" maskUnits="userSpaceOnUse" x="8" y="3" width="11" height="20"><path d="M15.232 22.787v-8.695h2.975l.446-3.39h-3.42V8.538c0-.98.276-1.65 1.712-1.65h1.828V3.856a25.273 25.273 0 00-2.665-.133c-2.638 0-4.444 1.58-4.444 4.48v2.5H8.681v3.389h2.983v8.695h3.568z" fill="#fff"/></mask><g mask="url(#a)"><path fill="#fff" d="M.341.149h26.213v26.213H.341z"/></g></svg>