<svg width="27" height="27" fill="none" xmlns="http://www.w3.org/2000/svg"><path d="M13.447 11.587v3.336h4.719a5.014 5.014 0 01-4.72 3.337 5.01 5.01 0 01-5.003-5.005 5.01 5.01 0 015.004-5.004 4.93 4.93 0 013.241 1.208l2.192-2.516a8.266 8.266 0 00-5.433-2.028c-4.599 0-8.34 3.741-8.34 8.34 0 4.6 3.741 8.34 8.34 8.34s8.34-3.74 8.34-8.34v-1.668h-8.34z" fill="#000"/><mask id="a" style="mask-type:alpha" maskUnits="userSpaceOnUse" x="5" y="4" width="17" height="18"><path d="M13.447 11.587v3.336h4.719a5.014 5.014 0 01-4.72 3.337 5.01 5.01 0 01-5.003-5.005 5.01 5.01 0 015.004-5.004 4.93 4.93 0 013.241 1.208l2.192-2.516a8.266 8.266 0 00-5.433-2.028c-4.599 0-8.34 3.741-8.34 8.34 0 4.6 3.741 8.34 8.34 8.34s8.34-3.74 8.34-8.34v-1.668h-8.34z" fill="#fff"/></mask><g mask="url(#a)"><path fill="#fff" d="M.341.149h26.213v26.213H.341z"/></g></svg>