<svg width="50" height="50" fill="none" xmlns="http://www.w3.org/2000/svg"><g clip-path="url(#clip0_9_2)"><path d="M49.453 25c0 13.516-10.937 24.453-24.453 24.453S.547 38.516.547 25 11.484.547 25 .547 49.453 11.484 49.453 25zM25 2.031A22.906 22.906 0 002.031 25c0 12.734 10.313 22.969 22.969 22.969 12.734 0 22.969-10.313 22.969-22.969A22.906 22.906 0 0025 2.031z" fill="url(#paint0_linear_9_2)"/><path d="M25 2.031A22.906 22.906 0 002.031 25c0 12.734 10.313 22.969 22.969 22.969 12.734 0 22.969-10.313 22.969-22.969A22.906 22.906 0 0025 2.031zm0 44.453C13.125 46.484 3.516 36.875 3.516 25 3.516 13.125 13.125 3.516 25 3.516c11.875 0 21.484 9.609 21.484 21.484 0 11.875-9.609 21.484-21.484 21.484z" fill="url(#paint1_linear_9_2)"/><path opacity=".4" d="M25 49.453c13.516 0 24.453-10.937 24.453-24.453S38.516.547 25 .547.547 11.484.547 25 11.484 49.453 25 49.453zM25 0c13.75 0 25 11.25 25 25S38.75 50 25 50 0 38.75 0 25 11.25 0 25 0z" fill="url(#paint2_linear_9_2)"/><path d="M1.719 25.078c0-12.812 10.39-23.36 23.281-23.36 12.89 0 23.281 10.47 23.281 23.36 0 12.813-10.39 23.203-23.281 23.203-12.89 0-23.281-10.39-23.281-23.203zM8.984 8.984c-4.14 4.141-6.718 9.844-6.718 16.094a22.68 22.68 0 006.64 16.016c4.14 4.062 9.844 6.64 16.094 6.64 6.25 0 11.953-2.5 16.016-6.64 4.14-4.063 6.64-9.766 6.64-16.016 0-6.25-2.578-11.953-6.64-16.094A22.424 22.424 0 0025 2.266 22.424 22.424 0 008.984 8.984z" fill="#fff"/><path opacity=".4" d="M25 46.563c-5.781 0-11.172-2.266-15.234-6.329C5.703 36.172 3.437 30.781 3.437 25c0-5.781 2.266-11.172 6.329-15.234C13.828 5.703 19.219 3.437 25 3.437c5.781 0 11.172 2.266 15.234 6.329 4.063 4.062 6.328 9.453 6.328 15.234 0 5.781-2.265 11.172-6.328 15.234-4.062 4.063-9.453 6.328-15.234 6.328zm0-.626a20.87 20.87 0 0014.766-6.093c3.984-3.985 6.093-9.219 6.093-14.766a20.87 20.87 0 00-6.093-14.765C35.78 6.328 30.546 4.218 25 4.218a20.87 20.87 0 00-14.766 6.093C6.25 14.142 4.063 19.453 4.063 25a20.87 20.87 0 006.093 14.766c3.985 3.984 9.297 6.172 14.844 6.172z" fill="url(#paint3_linear_9_2)"/><path d="M43.984 35.156c-.39-.312-15.468-12.265-15.468-12.265L25 2.813a1.334 1.334 0 00-.703.624l-2.5 19.532L6.25 34.922s-.313.39-.469.625c-.078.156-.078.39-.078.625l19.219-7.89 19.219 7.89c.156-.39 0-.781-.157-1.016z" fill="#fff"/><path d="M25.156 25.625L25 29.219l17.656 7.11c.625.312 1.094.155 1.563-.157L25.39 25.547c-.078-.078-.235 0-.235.078z" fill="#565F64"/><path d="M25.156 25.625s1.016 1.797 2.188 3.047c1.64 1.797 3.828 3.047 3.828 3.047l11.484 4.61c.625.312 1.094.155 1.563-.157L25.39 25.547c-.078-.078-.235 0-.235.078z" fill="url(#paint4_linear_9_2)"/><path d="M44.14 35.469c0-.078-.078-.157-.156-.313L27.891 23.36l-2.188 1.407s.156.078.235 0a1.956 1.956 0 011.171 0c.391.156 17.032 10.78 17.032 10.78v-.077z" fill="#A4AAAE" fill-opacity=".6"/><path d="M43.594 34.766l-15-11.875-.703.468 16.093 11.875c-.078-.156-.234-.312-.39-.468z" fill="#333E46"/><path d="M25.39 24.453l-.078.078s0 .157.157.078c.078-.078 2.343-1.25 3.125-1.718L25.859 4.14c-.078-.704-.39-1.016-.937-1.25l.312 21.718.157-.156z" fill="#565F64"/><path d="M24.063 4.14v1.016l-1.72 17.266c0 .234.079.469.313.625l1.016.781.703-19.062.078-1.485c-.234.156-.312.469-.39.86zm-.938 20l-.938-.78L6.329 34.843s-.469.312-.547.625l.547-.313 16.64-10.468c.313-.157.391-.313.157-.547z" fill="#A4AAAE" fill-opacity=".6"/><path d="M24.766 25.625c0-.078-.078-.156-.157-.078L5.703 36.25c.469.313.938.39 1.563.156l17.656-7.11-.156-3.671z" fill="#565F64"/><path d="M25.313 24.531l.078-.078-.078.078s0 .078.078.078h.078c.078-.078 2.343-1.25 3.125-1.718l-.313-2.266L25.86 4.141c0-.313-.078-.547-.234-.704 0 0 1.172 15.782 1.172 17.5 0 2.266-1.485 3.594-1.485 3.594z" fill="url(#paint5_linear_9_2)"/><path d="M24.766 25.625c0-.078-.078-.156-.157-.078L5.703 36.25c.469.313.938.39 1.563.156l17.656-7.11-.156-3.671z" fill="url(#paint6_linear_9_2)" fill-opacity=".8"/><path opacity=".8" d="M7.266 36.328l17.656-7.11-.156-3.437c-.313.938-.86 1.953-2.344 2.735-1.094.625-11.563 5.78-15.313 7.578-.234.156-.546.234-.703.312.313.157.547.078.86-.078z" fill="url(#paint7_linear_9_2)"/><path d="M25.39 24.453l-.078.078s0 .157.157.078c.078-.078 2.343-1.25 3.125-1.718L25.859 4.14c-.078-.704-.39-1.016-.937-1.25l.312 21.718.157-.156z" fill="url(#paint8_linear_9_2)"/><path d="M25.39 24.453l-.078.078s0 .157.157.078c.078-.078 2.343-1.25 3.125-1.718L25.859 4.14c-.078-.704-.39-1.016-.937-1.25l.312 21.718.157-.156z" fill="url(#paint9_linear_9_2)"/><path d="M3.984 34.688c-.546-1.25-3.671-7.344-.234-19.063H2.422c-.703 2.344-1.25 3.75-1.563 5.86 0 0-.156.78-.234 1.64-.078.86-.078 1.328-.078 1.875 0 4.688 1.172 7.422 1.172 7.422 1.25 3.906 3.437 7.422 6.406 10.078 2.578 2.266 6.563 3.984 9.844 4.61-.547-.079-9.922-4.063-13.985-12.422z" fill="url(#paint10_linear_9_2)"/><path d="M25.313 25.469h-.704c.078 0 .157 0 .157.078l.156 3.594H25l.156-3.594c0-.078.078-.156.157-.078z" fill="url(#paint11_linear_9_2)"/><path d="M32.813 1.797C41.016 4.922 48.75 13.516 48.75 24.375 48.75 37.5 38.281 48.203 25 48.203v1.25c13.281 0 24.453-10.937 24.453-24.453 0-10.781-6.875-19.844-16.64-23.203z" fill="url(#paint12_linear_9_2)"/><path d="M45.938 15.781C40.468 3.203 28.125 2.5 27.422 2.421h-.078c9.453 1.72 15.468 7.892 17.578 14.376v.078c.937 2.5 1.406 5.156 1.484 8.047.078 2.734-.547 5.781-1.718 8.594-.079.39-.157.859-.235.859h1.25c3.75-7.031 2.11-14.14.234-18.594z" fill="url(#paint13_linear_9_2)"/><path d="M1.719 25.078c0-12.812 10.39-23.36 23.281-23.36 12.89 0 23.281 10.47 23.281 23.36 0 12.813-10.39 23.203-23.281 23.203-12.89 0-23.281-10.39-23.281-23.203zM8.984 8.984c-4.14 4.141-6.718 9.844-6.718 16.094a22.68 22.68 0 006.64 16.016c4.14 4.062 9.844 6.64 16.094 6.64 6.25 0 11.953-2.5 16.016-6.64 4.14-4.063 6.64-9.766 6.64-16.016 0-6.25-2.578-11.953-6.64-16.094A22.424 22.424 0 0025 2.266 22.424 22.424 0 008.984 8.984z" fill="#FBFBFB"/><path d="M6.172 35l15.937-11.484c.86.468 2.266 1.093 2.422 1.093.157.078.157-.078.157-.078l-1.954-1.64c-.234-.157-.312-.391-.312-.625l1.875-18.828c-.078.078-.078.234-.156.312-.078.156-.078.234-.078.39l-2.735 18.83-15 11.797c-.078.078-.156.156-.156.234z" fill="#333F47"/></g><defs><linearGradient id="paint0_linear_9_2" x1="6.25" y1="9.297" x2="43.75" y2="40.703" gradientUnits="userSpaceOnUse"><stop stop-color="#fff"/><stop offset=".1" stop-color="#CDD0D0"/><stop offset=".2" stop-color="#A5ACAF"/><stop offset=".3" stop-color="#98A0A4"/><stop offset=".4" stop-color="#828A8F"/><stop offset=".5" stop-color="#667075"/><stop offset=".6" stop-color="#535C63"/><stop offset=".7" stop-color="#475158"/><stop offset=".8" stop-color="#434D54"/><stop offset="1" stop-color="#475157"/></linearGradient><linearGradient id="paint1_linear_9_2" x1="7.422" y1="10.234" x2="42.578" y2="39.766" gradientUnits="userSpaceOnUse"><stop stop-color="#0B1F2A"/><stop offset=".2" stop-color="#333F47"/><stop offset=".5" stop-color="#81898D"/><stop offset=".7" stop-color="#B3B8B8"/><stop offset=".8" stop-color="#DEE0DD"/><stop offset="1" stop-color="#FBFBFB"/></linearGradient><linearGradient id="paint2_linear_9_2" x1="33.572" y1="48.521" x2="16.463" y2="1.49" gradientUnits="userSpaceOnUse"><stop stop-color="#E1E3E1"/><stop offset=".1" stop-color="#C1C5C4"/><stop offset=".3" stop-color="#9BA1A2"/><stop offset=".5" stop-color="#7D8487"/><stop offset=".7" stop-color="#687074" stop-opacity="0"/><stop offset=".8" stop-color="#5B6469" stop-opacity="0"/><stop offset="1" stop-color="#576065" stop-opacity="0"/></linearGradient><linearGradient id="paint3_linear_9_2" x1="14.219" y1="6.328" x2="35.781" y2="43.672" gradientUnits="userSpaceOnUse"><stop stop-color="#E1E3E1"/><stop offset=".1" stop-color="#C1C5C4"/><stop offset=".3" stop-color="#9BA1A2"/><stop offset=".5" stop-color="#7D8487"/><stop offset=".7" stop-color="#687074" stop-opacity="0"/><stop offset=".8" stop-color="#5B6469" stop-opacity="0"/><stop offset="1" stop-color="#576065" stop-opacity="0"/></linearGradient><linearGradient id="paint4_linear_9_2" x1="34.766" y1="30.781" x2="33.438" y2="32.969" gradientUnits="userSpaceOnUse"><stop stop-color="#27343C"/><stop offset="1" stop-color="#00111E" stop-opacity="0"/></linearGradient><linearGradient id="paint5_linear_9_2" x1="30.938" y1="22.734" x2="28.75" y2="19.219" gradientUnits="userSpaceOnUse"><stop offset=".1" stop-color="#02131F"/><stop offset=".9" stop-color="#02131F" stop-opacity="0"/></linearGradient><linearGradient id="paint6_linear_9_2" x1="25" y1="28.438" x2="21.719" y2="29.375" gradientUnits="userSpaceOnUse"><stop offset=".2" stop-color="#02131F"/><stop offset=".9" stop-color="#02131F" stop-opacity="0"/></linearGradient><linearGradient id="paint7_linear_9_2" x1="16.25" y1="32.734" x2="15.781" y2="31.563" gradientUnits="userSpaceOnUse"><stop stop-color="#02131F"/><stop offset=".1" stop-color="#02131F"/><stop offset="1" stop-color="#02131F" stop-opacity="0"/></linearGradient><linearGradient id="paint8_linear_9_2" x1="27.813" y1="13.438" x2="25.156" y2="13.75" gradientUnits="userSpaceOnUse"><stop offset=".3" stop-color="#02131F"/><stop offset=".8" stop-color="#02131F" stop-opacity="0"/></linearGradient><linearGradient id="paint9_linear_9_2" x1="27.891" y1="13.359" x2="26.094" y2="13.594" gradientUnits="userSpaceOnUse"><stop offset=".4" stop-color="#27343C"/><stop offset="1" stop-color="#3B474E" stop-opacity="0"/></linearGradient><linearGradient id="paint10_linear_9_2" x1="-.313" y1="25.703" x2="21.484" y2="38.281" gradientUnits="userSpaceOnUse"><stop stop-color="#25323B" stop-opacity="0"/><stop offset=".1" stop-color="#27343C"/></linearGradient><linearGradient id="paint11_linear_9_2" x1="25" y1="29.219" x2="25" y2="25.469" gradientUnits="userSpaceOnUse"><stop offset=".3" stop-color="#A5ABAF"/><stop offset="1" stop-color="#A5ABAF" stop-opacity="0"/></linearGradient><linearGradient id="paint12_linear_9_2" x1="37.266" y1="1.797" x2="37.266" y2="49.453" gradientUnits="userSpaceOnUse"><stop stop-color="#6B7378"/><stop offset=".2" stop-color="#333F47"/><stop offset=".5" stop-color="#27343C"/><stop offset=".8" stop-color="#333F47"/><stop offset="1" stop-color="#434D54"/></linearGradient><linearGradient id="paint13_linear_9_2" x1="44.766" y1="6.328" x2="34.219" y2="21.797" gradientUnits="userSpaceOnUse"><stop offset=".7" stop-color="#49545B"/><stop offset=".8" stop-color="#fff" stop-opacity="0"/></linearGradient><clipPath id="clip0_9_2"><path fill="#fff" d="M0 0h50v50H0z"/></clipPath></defs></svg>