<svg width="285" height="33" fill="none" xmlns="http://www.w3.org/2000/svg"><path fill-rule="evenodd" clip-rule="evenodd" d="M182.875 18.403h10.608v2.472h-10.608v-2.472zM6.457 3.41l-.95 24.809v.43c0 2.103.617 2.534 3.94 2.773v1.148c-2.42-.192-3.37-.24-4.7-.24-1.329 0-2.278.048-4.747.24v-1.148c3.323-.24 3.798-.622 3.893-3.203L4.89 4.75v-.287c0-2.2-.665-2.677-3.94-2.868V.4C2.8.542 3.513.59 4.842.59 6.6.59 7.55.542 9.352.35l8.831 24.188L27.156.351c2.137.19 3.134.24 4.558.24 1.187 0 1.946-.05 3.75-.192v1.195c-3.228.19-3.94.669-3.94 2.82v.335l.522 23.47c.048 2.581.475 2.964 3.893 3.203v1.148c-2.99-.288-4.13-.383-5.934-.383-1.804 0-2.944.095-5.934.383v-1.148c3.228-.191 3.94-.717 3.94-2.964v-.24l-.427-24.76-7.834 21.319-.57 1.578-.664 1.768-.617 1.817-.523 1.577h-.712l-.522-1.53-.665-1.864-.664-1.864-.57-1.673L6.457 3.41zm35.65 15.44c.476-5.497 2.28-8.318 5.318-8.318 3.086 0 4.653 2.677 4.938 8.318H42.108zm6.173 12.524c-4.32 0-6.22-3.346-6.267-10.803H56.16c-.095-7.362-3.086-11.282-8.688-11.282-5.698 0-9.258 4.638-9.258 11.999 0 7.361 3.56 11.664 9.685 11.664 4.652 0 7.691-2.916 8.308-7.84H54.31c-.57 4.063-2.659 6.262-6.03 6.262zm10.707-20.316v-.86c2.706-.239 4.32-.526 6.267-1.1.238 1.77.332 2.534.428 3.968v.526c1.044-2.725 3.085-4.303 5.554-4.303 2.374 0 4.13 1.578 4.13 3.873 0 1.385-.806 2.294-1.993 2.294-1.092 0-1.946-.67-1.946-1.625 0-.096.047-.287.094-.478l.095-.478v-.43c0-.67-.57-1.148-1.424-1.148-2.469 0-4.036 3.012-4.036 7.744v9.99c0 2.056.475 2.439 3.37 2.582v.956c-2.61-.239-3.607-.287-5.269-.287-1.71 0-2.706.048-5.317.287v-.956c2.896-.143 3.418-.526 3.418-2.581V13.4c-.047-2.056-.285-2.295-2.753-2.343h-.617zM93.528 8.86v7.887h-1.045c-.854-4.159-2.61-6.167-5.507-6.167-3.56 0-5.65 3.872-5.65 10.708 0 6.692 1.852 10.086 5.507 10.086 2.944 0 4.7-2.104 5.27-6.31h1.947c-.617 5.115-3.324 7.888-7.596 7.888-5.507 0-9.258-4.685-9.258-11.664 0-7.123 3.798-11.998 9.4-11.998 2.042 0 3.324.525 4.843 2.007l1.282-2.437h.807zm7.796 9.99c.475-5.497 2.279-8.318 5.318-8.318 3.086 0 4.652 2.677 4.938 8.318h-10.256zm6.173 12.524c-4.321 0-6.22-3.346-6.268-10.803h14.148c-.095-7.362-3.085-11.282-8.687-11.282-5.698 0-9.258 4.638-9.258 11.999 0 7.361 3.56 11.664 9.685 11.664 4.652 0 7.691-2.916 8.308-7.84h-1.899c-.57 4.063-2.658 6.262-6.029 6.262zm21.028.286c-3.418 0-5.222-3.584-5.222-10.42 0-6.931 1.662-10.325 5.08-10.325 3.513 0 5.317 3.633 5.317 10.66 0 6.644-1.757 10.085-5.175 10.085zm8.926-4.062V0c-2.374.637-4.511 1.02-7.169 1.307v.813c2.991 0 3.37.334 3.37 2.82v8.365c-1.756-2.868-3.133-3.729-5.696-3.729-5.08 0-8.641 4.828-8.641 11.712 0 6.883 3.608 11.712 8.783 11.712 2.706 0 4.558-1.244 5.887-3.92.19 1.816.19 2.007.665 3.824 1.946-.622 2.754-.813 5.554-1.148l.713-.096v-.812c-3.181-.095-3.466-.334-3.466-3.25zm9.157-8.748c.475-5.497 2.279-8.318 5.317-8.318 3.086 0 4.652 2.677 4.937 8.318h-10.254zm6.172 12.524c-4.321 0-6.22-3.346-6.267-10.803h14.148c-.095-7.362-3.087-11.282-8.688-11.282-5.698 0-9.259 4.638-9.259 11.999 0 7.361 3.561 11.664 9.685 11.664 4.653 0 7.692-2.916 8.309-7.84h-1.899c-.569 4.063-2.659 6.262-6.029 6.262zM164.69 33v-7.984l1.044-.047c.855 4.35 2.849 6.453 6.173 6.453 2.801 0 4.89-1.865 4.89-4.303 0-1.625-.902-2.724-3.229-3.776l-1.805-.813-2.183-1.003c-3.466-1.626-4.558-2.964-4.558-5.736 0-3.777 2.944-6.358 7.122-6.358 1.852 0 3.228.43 4.843 1.53l.806-1.96h.855v7.409h-1.092c-.428-3.824-1.994-5.64-4.985-5.64-2.516 0-4.462 1.72-4.462 3.967 0 1.912.711 2.533 5.032 4.445l1.994.861c3.608 1.577 4.89 3.107 4.89 5.927 0 4.015-3.18 6.884-7.644 6.884-2.184 0-3.893-.574-5.696-2.008L165.544 33h-.854zm41.735-16.492c2.516 0 3.94.43 5.032 1.53 1.092 1.099 1.709 3.154 1.709 5.449 0 4.78-2.374 7.457-6.599 7.457h-1.709c-2.516 0-2.944-.383-2.944-2.486v-11.95h4.511zm-4.511-14.484h4.035c3.988 0 5.745 1.96 5.745 6.405 0 2.199-.522 3.777-1.566 5.02-1.045 1.194-2.327 1.577-4.986 1.577h-3.228V2.024zm14.006 6.31c0-2.486-1.045-4.685-2.849-6.071-1.614-1.195-3.466-1.721-6.551-1.721h-12.487v1.195c3.418.191 3.893.574 3.893 3.155v23.184c0 2.581-.38 2.915-3.893 3.202v1.148h12.011c3.514 0 5.413-.43 7.406-1.674 2.375-1.53 3.942-4.445 3.942-7.456 0-2.582-1.092-4.924-2.945-6.358-.997-.765-2.041-1.195-3.75-1.53 3.419-1.29 5.223-3.728 5.223-7.074zm9.221 10.516c.474-5.497 2.28-8.318 5.317-8.318 3.087 0 4.653 2.677 4.938 8.318h-10.255zm6.172 12.524c-4.321 0-6.22-3.346-6.268-10.803h14.148c-.094-7.362-3.085-11.282-8.687-11.282-5.698 0-9.258 4.638-9.258 11.999 0 7.361 3.56 11.664 9.684 11.664 4.654 0 7.693-2.916 8.308-7.84h-1.899c-.568 4.063-2.658 6.262-6.028 6.262zm10.394-20.124v-.813c2.755-.382 4.369-.765 6.266-1.434.239 1.1.381 2.342.476 4.159 1.708-2.582 3.655-3.729 6.409-3.729 2.848 0 5.317 1.482 6.268 3.824.474 1.147.711 2.486.711 4.302v11.473c0 2.055.475 2.438 3.37 2.581v.957c-2.515-.24-3.465-.288-5.173-.288-1.758 0-2.706.048-5.176.288v-.957c2.563-.096 3.181-.574 3.181-2.486v-11.71c0-4.16-1.233-5.833-4.273-5.833-3.228 0-4.936 2.056-4.936 5.975v11.568c0 1.912.616 2.39 3.085 2.486v.957c-2.469-.24-3.418-.288-5.128-.288-1.662 0-2.658.048-5.128.288v-.957c2.896-.143 3.37-.526 3.37-2.581V13.544c-.045-1.96-.33-2.247-2.704-2.247-.143 0-.381-.047-.618-.047zm25.347 21.175l12.866-21.32h-5.841c-3.085 0-3.844.67-5.554 4.972h-.949l1.092-6.214H285l-12.914 21.32h5.554c3.231 0 4.558-1.291 5.983-5.64h.999l-1.236 6.883h-16.332z" fill="#fff"/></svg>