<svg width="54" height="54" fill="none" xmlns="http://www.w3.org/2000/svg"><path d="M16.667 2.533C7.067 6.933 0 17.333 0 26.933c.133 13.067 13.733 26.4 26.933 26.4 5.467 0 14.4-4 18.4-8.133 4.267-4.533 8-13.067 8-18.533 0-9.734-7.733-20.4-17.6-24.534-6.533-2.8-12.533-2.666-19.066.4zm16.533 16c3.067 3.6 5.467 6.8 5.467 7.2 0 .4-1.6.934-3.6 1.2-3.467.4-3.734.934-3.867 6.4 0 5.734-.267 6-4.267 6.4-4 .4-4.133.267-4.533-6-.4-5.866-.667-6.4-4-6.8-2.133-.266-3.733-.8-3.733-1.066C14.667 24.8 25.867 12 26.933 12c.4 0 3.334 2.933 6.267 6.533z" fill="#F402A2"/></svg>