<svg width="27" height="27" fill="none" xmlns="http://www.w3.org/2000/svg"><path d="M24.17 6.862a8.298 8.298 0 01-2.386.654 4.172 4.172 0 001.827-2.297 8.377 8.377 0 01-2.64 1.008 4.155 4.155 0 00-7.08 3.788 11.797 11.797 0 01-8.565-4.34 4.124 4.124 0 00-.562 2.088c0 1.441.734 2.713 1.848 3.458a4.156 4.156 0 01-1.882-.522v.052a4.16 4.16 0 003.333 4.075 4.211 4.211 0 01-1.095.145c-.269 0-.528-.027-.783-.077a4.157 4.157 0 003.881 2.886 8.337 8.337 0 01-5.16 1.775c-.336 0-.666-.02-.991-.056a11.746 11.746 0 006.369 1.869c7.644 0 11.822-6.331 11.822-11.822l-.014-.538a8.298 8.298 0 002.078-2.146z" fill="#010002"/><mask id="a" style="mask-type:alpha" maskUnits="userSpaceOnUse" x="3" y="4" width="22" height="18"><path d="M24.17 6.862a8.298 8.298 0 01-2.386.654 4.172 4.172 0 001.827-2.297 8.377 8.377 0 01-2.64 1.008 4.155 4.155 0 00-7.08 3.788 11.797 11.797 0 01-8.565-4.34 4.124 4.124 0 00-.562 2.088c0 1.441.734 2.713 1.848 3.458a4.156 4.156 0 01-1.882-.522v.052a4.16 4.16 0 003.333 4.075 4.211 4.211 0 01-1.095.145c-.269 0-.528-.027-.783-.077a4.157 4.157 0 003.881 2.886 8.337 8.337 0 01-5.16 1.775c-.336 0-.666-.02-.991-.056a11.746 11.746 0 006.369 1.869c7.644 0 11.822-6.331 11.822-11.822l-.014-.538a8.298 8.298 0 002.078-2.146z" fill="#fff"/></mask><g mask="url(#a)"><path fill="#fff" d="M.34.149h26.213v26.213H.34z"/></g></svg>